{"title":"Wentworth - S04E09 - Afterlife","uid":15220749,"size":403751861,"categoryP":"video","categoryS":"tv_shows","magnet":"?xt=urn:btih:e69c129d557bd3dbc3f2ad2a912cf21ba9748866&amp;dn=Wentworth+-+S04E09+-+Afterlife&amp;tr=udp%3A%2F%2Ftracker.leechers-paradise.org%3A6969&amp;tr=udp%3A%2F%2Fzer0day.ch%3A1337&amp;tr=udp%3A%2F%2Fopen.demonii.com%3A1337&amp;tr=udp%3A%2F%2Ftracker.coppersurfer.tk%3A6969&amp;tr=udp%3A%2F%2Fexodus.desync.com%3A6969","seeders":6,"leechers":1,"uploader":"Bullrout","files":1,"time":1467734366,"description":"Wentworth - S04E09 - Afterlife\r\n\r\nBea struggles to recover in the wake of her attack. Ferguson returns from the burns unit and is placed in a medical hold under the supervision of Jake. Maxine is back after surgery and finds herself in the crossfire of huge tension between Boomer, Liz and Sonia.\r\n\r\nComplete name                            : Wentworth - S04E09 - Afterlife.mp4\r\nFormat                                   : MPEG-4\r\nFormat profile                           : Base Media / Version 2\r\nCodec ID                                 : mp42 (mp42/isom/avc1)\r\nFile size                                : 385 MiB\r\nDuration                                 : 48mn 45s\r\nOverall bit rate mode                    : Variable\r\nOverall bit rate                         : 1 104 Kbps\r\n\r\nVideo\r\nID                                       : 2\r\nFormat                                   : AVC\r\nFormat/Info                              : Advanced Video Codec\r\nFormat profile                           :   \r\nFormat settings, CABAC                   : Yes\r\nFormat settings, ReFrames                : 3 frames\r\nCodec ID                                 : avc1\r\nCodec ID/Info                            : Advanced Video Coding\r\nDuration                                 : 48mn 45s\r\nBit rate mode                            : Variable\r\nBit rate                                 : 973 Kbps\r\nMaximum bit rate                         : 1 000 Kbps\r\nWidth                                    : 720 pixels\r\nHeight                                   : 404 pixels\r\nDisplay aspect ratio                     : 16:9\r\nOriginal display aspect ratio            : 16:9\r\nFrame rate mode                          : Constant\r\nFrame rate                               : 25.000 fps\r\nStandard                                 : PAL\r\nColor space                              : YUV\r\nChroma subsampling                       : 4:2:0\r\nBit depth                                : 8 bits\r\nScan type                                : Progressive\r\nBits/(Pixel*Frame)                       : 0.134\r\nStream size                              : 339 MiB (88%)\r\nWriting library                          : x264 core 112\r\nColor range                              : Limited\r\nColor primaries                          : BT.601 PAL\r\nTransfer characteristics                 : BT.470 System B, BT.470 System G\r\nMatrix coefficients                      : BT.601\r\n\r\nAudio\r\nID                                       : 1\r\nFormat                                   : AAC\r\nFormat/Info                              : Advanced Audio Codec\r\nFormat profile                           : LC\r\nCodec ID                                 : 40\r\nDuration                                 : 48mn 45s\r\nBit rate mode                            : Variable\r\nBit rate                                 : 128 Kbps\r\nMaximum bit rate                         : 576 Kbps\r\nChannel(s)                               : 2 channels\r\nChannel positions                        : Front: L R\r\nSampling rate                            : 48.0 KHz\r\nFrame rate                               : 46.875 fps (1024 spf)\r\nCompression mode                         : Lossy\r\nStream size                              : 44.6 MiB (12%)","torrent":{"xt":"urn:btih:e69c129d557bd3dbc3f2ad2a912cf21ba9748866","amp;dn":"Wentworth+-+S04E09+-+Afterlife","amp;tr":["udp%3A%2F%2Ftracker.leechers-paradise.org%3A6969","udp%3A%2F%2Fzer0day.ch%3A1337","udp%3A%2F%2Fopen.demonii.com%3A1337","udp%3A%2F%2Ftracker.coppersurfer.tk%3A6969","udp%3A%2F%2Fexodus.desync.com%3A6969"],"infoHash":"e69c129d557bd3dbc3f2ad2a912cf21ba9748866","infoHashBuffer":{"type":"Buffer","data":[230,156,18,157,85,123,211,219,195,242,173,42,145,44,242,27,169,116,136,102]},"announce":[],"urlList":[]}}